<!-- <svg width="48" height="48" viewBox="0 0 48 48" fill="none" xmlns="http://www.w3.org/2000/svg">
<rect width="48" height="48" rx="8.88889" fill="white"/>
<path d="M11.26 30H7.9L13.76 16.6H18.04L23.94 30H20.5L19.24 27.04H12.54L11.26 30ZM14.96 21.42L13.7 24.34H18.08L16.82 21.42L16 19.34H15.78L14.96 21.42ZM27.6398 30H24.6398V16.6H27.6398V21.92H34.6398V16.6H37.6398V30H34.6398V24.62H27.6398V30Z" fill="url(#paint0_linear_1545_39)"/>
<defs>
<linearGradient id="paint0_linear_1545_39" x1="8" y1="35.5" x2="38.0109" y2="10.5484" gradientUnits="userSpaceOnUse">
<stop stop-color="#989FFF"/>
<stop offset="1" stop-color="#29A2FF"/>
</linearGradient>
</defs>
</svg>
<?xml version="1.0" encoding="utf-8"?>
License: MIT. Made by vscode-icons: https://github.com/vscode-icons/vscode-icons -->
<svg width="48" height="48" viewBox="0 0 48 48" xmlns="http://www.w3.org/2000/svg"><title>file_type_devcontainer</title><circle cx="16" cy="16" r="14" style="fill:#193e63"/><polygon points="10.777 22.742 9.343 21.348 12.729 17.865 9.346 14.417 10.774 13.017 15.525 17.859 10.777 22.742" style="fill:#add1ea"/><polygon points="21.42 19.101 22.854 17.706 19.468 14.224 22.851 10.776 21.423 9.376 16.672 14.218 21.42 19.101" style="fill:#add1ea"/></svg>