
<svg width="0" height="0" xmlns="http://www.w3.org/2000/svg">

<symbol id="sklearn" viewBox="0 0 512 512">
      <path d="M256 0C114.6 0 0 114.6 0 256s114.6 256 256 256 256-114.6 256-256S397.4 0 256 0zm128 320c-12.8 12.8-32 12.8-44.8 0l-89.6-89.6-89.6 89.6c-12.8 12.8-32 12.8-44.8 0-12.8-12.8-12.8-32 0-44.8l89.6-89.6-89.6-89.6c-12.8-12.8-12.8-32 0-44.8 12.8-12.8 32-12.8 44.8 0l89.6 89.6 89.6-89.6c12.8-12.8 32-12.8 44.8 0 12.8 12.8 12.8 32 0 44.8l-89.6 89.6 89.6 89.6c12.8 12.8 12.8 32 0 44.8z"/>
  </symbol>
</svg>